<?xml version="1.0" encoding="UTF-8" standalone="no"?>
<!DOCTYPE svg PUBLIC "-//W3C//DTD SVG 1.1//EN" "http://www.w3.org/Graphics/SVG/1.1/DTD/svg11.dtd">
<!-- Created with Vectornator (http://vectornator.io/) -->
<svg stroke-miterlimit="10" style="fill-rule:nonzero;clip-rule:evenodd;stroke-linecap:round;stroke-linejoin:round;" version="1.1" viewBox="0 0 400 400" xml:space="preserve" xmlns="http://www.w3.org/2000/svg" xmlns:vectornator="http://vectornator.io" xmlns:xlink="http://www.w3.org/1999/xlink">
<defs/>
<g id="Layer-1" vectornator:layerName="Layer 1">
<path d="M61.2812 3.5C52.2812 5.83333 44.6146 9 38.2812 13C31.9479 17 25.6146 22.8333 19.2812 30.5C12.9479 38.1667 8.28125 46.3333 5.28125 55C2.28125 63.6667 0.614583 110.833 0.28125 196.5C-0.0520833 282.167 0.947917 329.5 3.28125 338.5C5.61458 347.5 8.78125 355.167 12.7812 361.5C16.7812 367.833 22.6146 374.167 30.2812 380.5C37.9479 386.833 44.6146 391.167 50.2812 393.5C55.9479 395.833 61.4479 397.5 66.7812 398.5C72.1146 399.5 116.448 400 199.781 400C283.115 400 329.281 398.833 338.281 396.5C347.281 394.167 354.948 391 361.281 387C367.615 383 373.948 377.167 380.281 369.5C386.615 361.833 390.948 355.167 393.281 349.5C395.615 343.833 397.281 338.333 398.281 333C399.281 327.667 399.781 283.333 399.781 200C399.781 116.667 398.615 70.5 396.281 61.5C393.948 52.5 390.781 44.8333 386.781 38.5C382.781 32.1667 376.948 25.8333 369.281 19.5C361.615 13.1667 354.948 8.83333 349.281 6.5C343.615 4.16667 338.115 2.5 332.781 1.5C327.448 0.5 283.115 0 199.781 0C116.448 0 70.2812 1.16667 61.2812 3.5ZM199.781 66C207.781 66 214.948 66.5 221.281 67.5C227.615 68.5 233.948 70 240.281 72C246.615 74 253.615 77 261.281 81C268.948 85 275.448 89 280.781 93C286.115 97 303.781 114 333.781 144C363.781 174 379.281 190 380.281 192C381.281 194 381.781 196.333 381.781 199C381.781 201.667 381.115 204.333 379.781 207C378.448 209.667 376.781 211.667 374.781 213C372.781 214.333 370.281 215.167 367.281 215.5C364.281 215.833 361.615 215.5 359.281 214.5C356.948 213.5 352.115 209.333 344.781 202C341.115 198.333 337.448 194.667 333.781 191C333.615 195.833 333.448 200.667 333.281 205.5C332.948 215.167 331.448 225 328.781 235C326.115 245 323.115 253.333 319.781 260C316.448 266.667 312.448 273.167 307.781 279.5C303.115 285.833 297.781 291.833 291.781 297.5C285.781 303.167 279.448 308.167 272.781 312.5C266.115 316.833 258.115 320.833 248.781 324.5C239.448 328.167 230.948 330.667 223.281 332C215.615 333.333 207.781 334 199.781 334C191.781 334 184.615 333.5 178.281 332.5C171.948 331.5 164.115 329.333 154.781 326C145.448 322.667 137.448 319 130.781 315C124.115 311 104.115 292.667 70.7812 260C37.4479 227.333 20.2812 209.667 19.2812 207C18.2812 204.333 17.9479 201.667 18.2812 199C18.6146 196.333 19.6146 193.833 21.2812 191.5C22.9479 189.167 24.7812 187.5 26.7812 186.5C28.7812 185.5 31.2812 185 34.2812 185C37.2812 185 39.6146 185.333 41.2812 186C42.9479 186.667 47.4479 190.667 54.7812 198C58.4479 201.667 62.1146 205.333 65.7812 209C65.9479 204.167 66.1146 199.333 66.2812 194.5C66.6146 184.833 68.1146 175 70.7812 165C73.4479 155 76.4479 146.667 79.7812 140C83.1146 133.333 87.1146 126.833 91.7812 120.5C96.4479 114.167 101.781 108.167 107.781 102.5C113.781 96.8333 120.115 91.8333 126.781 87.5C133.448 83.1667 141.448 79.1667 150.781 75.5C160.115 71.8333 168.615 69.3333 176.281 68C183.948 66.6667 191.781 66 199.781 66ZM179.281 100.5C174.281 101.5 168.448 103.333 161.781 106C155.115 108.667 148.448 112.333 141.781 117C135.115 121.667 129.781 126.167 125.781 130.5C121.781 134.833 118.115 139.5 114.781 144.5C111.448 149.5 108.448 155.333 105.781 162C103.115 168.667 101.281 174.5 100.281 179.5C99.2812 184.5 98.7812 191.333 98.7812 200C98.7812 208.667 99.2812 215.5 100.281 220.5C101.281 225.5 103.115 231.333 105.781 238C108.448 244.667 112.115 251.333 116.781 258C121.448 264.667 126.115 270.167 130.781 274.5C135.448 278.833 140.115 282.5 144.781 285.5C149.448 288.5 155.115 291.333 161.781 294C168.448 296.667 174.281 298.5 179.281 299.5C184.281 300.5 191.115 301 199.781 301C208.448 301 215.281 300.5 220.281 299.5C225.281 298.5 231.115 296.667 237.781 294C244.448 291.333 251.115 287.667 257.781 283C264.448 278.333 269.781 273.833 273.781 269.5C277.781 265.167 281.448 260.5 284.781 255.5C288.115 250.5 291.115 244.667 293.781 238C296.448 231.333 298.281 225.5 299.281 220.5C300.281 215.5 300.781 208.667 300.781 200C300.781 191.333 300.281 184.5 299.281 179.5C298.281 174.5 296.448 168.667 293.781 162C291.115 155.333 287.448 148.667 282.781 142C278.115 135.333 273.448 129.833 268.781 125.5C264.115 121.167 259.448 117.5 254.781 114.5C250.115 111.5 244.448 108.667 237.781 106C231.115 103.333 225.281 101.5 220.281 100.5C215.281 99.5 208.448 99 199.781 99C191.115 99 184.281 99.5 179.281 100.5Z" fill="#00006b" fill-rule="nonzero" opacity="1" stroke="none"/>
</g>
</svg>
