<?xml version="1.0" encoding="UTF-8" standalone="no"?>
<!DOCTYPE svg PUBLIC "-//W3C//DTD SVG 1.1//EN" "http://www.w3.org/Graphics/SVG/1.1/DTD/svg11.dtd">
<!-- Created with Vectornator (http://vectornator.io/) -->
<svg height="100%" stroke-miterlimit="10" style="fill-rule:nonzero;clip-rule:evenodd;stroke-linecap:round;stroke-linejoin:round;" version="1.1" viewBox="0 0 400 400" width="100%" xml:space="preserve" xmlns="http://www.w3.org/2000/svg" xmlns:vectornator="http://vectornator.io" xmlns:xlink="http://www.w3.org/1999/xlink">
<defs>
<linearGradient gradientTransform="matrix(1 0 0 1 -2.80992 -0.143217)" gradientUnits="userSpaceOnUse" id="LinearGradient" x1="9.24348" x2="396.376" y1="200.143" y2="200.143">
<stop offset="0.157025" stop-color="#d7644c"/>
<stop offset="0.200413" stop-color="#d5694f"/>
<stop offset="1" stop-color="#e92c2c"/>
</linearGradient>
<linearGradient gradientTransform="matrix(1 0 0 1 -2.84217e-14 0)" gradientUnits="userSpaceOnUse" id="LinearGradient_2" x1="0.21875" x2="243.286" y1="200" y2="151.041">
<stop offset="0.200413" stop-color="#2a96b0"/>
<stop offset="0.260331" stop-color="#289bb3"/>
<stop offset="1" stop-color="#16d3d3"/>
</linearGradient>
<linearGradient gradientTransform="matrix(1 0 0 1 0.21875 -2.84217e-14)" gradientUnits="userSpaceOnUse" id="LinearGradient_3" x1="0.21875" x2="243.286" y1="200" y2="151.041">
<stop offset="0.200413" stop-color="#d5694f"/>
<stop offset="0.260331" stop-color="#d7644c"/>
<stop offset="1" stop-color="#e92c2c"/>
</linearGradient>
</defs>
<g id="Layer-1" vectornator:layerName="Layer 1">
<path d="M6.43356 200C6.43356 93.0962 93.0962 6.43356 200 6.43356C306.904 6.43356 393.566 93.0962 393.566 200C393.566 306.904 306.904 393.566 200 393.566C93.0962 393.566 6.43356 306.904 6.43356 200Z" fill="url(#LinearGradient)" fill-rule="nonzero" opacity="1" stroke="none"/>
<path d="M61.2812 3.5C52.2812 5.83333 44.6146 9 38.2812 13C31.9479 17 25.6146 22.8333 19.2812 30.5C12.9479 38.1667 8.28125 46.3333 5.28125 55C2.28125 63.6667 0.614583 110.833 0.28125 196.5C-0.0520833 282.167 0.947917 329.5 3.28125 338.5C5.61458 347.5 8.78125 355.167 12.7812 361.5C16.7812 367.833 22.6146 374.167 30.2812 380.5C37.9479 386.833 44.6146 391.167 50.2812 393.5C55.9479 395.833 61.4479 397.5 66.7812 398.5C72.1146 399.5 116.448 400 199.781 400C283.115 400 329.281 398.833 338.281 396.5C347.281 394.167 354.948 391 361.281 387C367.615 383 373.948 377.167 380.281 369.5C386.615 361.833 390.948 355.167 393.281 349.5C395.615 343.833 397.281 338.333 398.281 333C399.281 327.667 399.781 283.333 399.781 200C399.781 116.667 398.615 70.5 396.281 61.5C393.948 52.5 390.781 44.8333 386.781 38.5C382.781 32.1667 376.948 25.8333 369.281 19.5C361.615 13.1667 354.948 8.83333 349.281 6.5C343.615 4.16667 338.115 2.5 332.781 1.5C327.448 0.5 283.115-2.22045e-16 199.781 0C116.448 4.44089e-16 70.2812 1.16667 61.2812 3.5Z" fill="url(#LinearGradient_2)" fill-rule="nonzero" opacity="0" stroke="none"/>
<path d="M199.813 66C207.812 66 214.979 66.5 221.312 67.5C227.646 68.5 233.979 70 240.312 72C246.646 74 253.646 77 261.312 81C268.979 85 275.479 89 280.812 93C286.146 97 303.812 114 333.812 144C363.813 174 379.313 190 380.312 192C381.312 194 381.813 196.333 381.812 199C381.813 201.667 381.146 204.333 379.813 207C378.479 209.667 376.812 211.667 374.813 213C372.812 214.333 370.313 215.167 367.312 215.5C364.313 215.833 361.646 215.5 359.312 214.5C356.979 213.5 352.146 209.333 344.813 202C341.146 198.333 337.479 194.667 333.812 191C333.646 195.833 333.479 200.667 333.312 205.5C332.979 215.167 331.479 225 328.812 235C326.146 245 323.146 253.333 319.813 260C316.479 266.667 312.479 273.167 307.812 279.5C303.146 285.833 297.812 291.833 291.812 297.5C285.812 303.167 279.479 308.167 272.812 312.5C266.146 316.833 258.146 320.833 248.812 324.5C239.479 328.167 230.979 330.667 223.312 332C215.646 333.333 207.813 334 199.813 334C191.812 334 184.646 333.5 178.313 332.5C171.979 331.5 164.146 329.333 154.813 326C145.479 322.667 137.479 319 130.812 315C124.146 311 104.146 292.667 70.8125 260C37.4792 227.333 20.3125 209.667 19.3125 207C18.3125 204.333 17.9792 201.667 18.3125 199C18.6458 196.333 19.6458 193.833 21.3125 191.5C22.9792 189.167 24.8125 187.5 26.8125 186.5C28.8125 185.5 31.3125 185 34.3125 185C37.3125 185 39.6458 185.333 41.3125 186C42.9792 186.667 47.4792 190.667 54.8125 198C58.4792 201.667 62.1458 205.333 65.8125 209C65.9792 204.167 66.1458 199.333 66.3125 194.5C66.6458 184.833 68.1458 175 70.8125 165C73.4792 155 76.4792 146.667 79.8125 140C83.1458 133.333 87.1458 126.833 91.8125 120.5C96.4792 114.167 101.813 108.167 107.813 102.5C113.813 96.8333 120.146 91.8333 126.813 87.5C133.479 83.1667 141.479 79.1667 150.812 75.5C160.146 71.8333 168.646 69.3333 176.313 68C183.979 66.6667 191.812 66 199.813 66Z" fill="#ffffff" fill-rule="nonzero" opacity="0.69186" stroke="none" vectornator:blendMode="overlay"/>
<path d="M179.5 100.5C174.5 101.5 168.667 103.333 162 106C155.333 108.667 148.667 112.333 142 117C135.333 121.667 130 126.167 126 130.5C122 134.833 118.333 139.5 115 144.5C111.667 149.5 108.667 155.333 106 162C103.333 168.667 101.5 174.5 100.5 179.5C99.5 184.5 99 191.333 99 200C99 208.667 99.5 215.5 100.5 220.5C101.5 225.5 103.333 231.333 106 238C108.667 244.667 112.333 251.333 117 258C121.667 264.667 126.333 270.167 131 274.5C135.667 278.833 140.333 282.5 145 285.5C149.667 288.5 155.333 291.333 162 294C168.667 296.667 174.5 298.5 179.5 299.5C184.5 300.5 191.333 301 200 301C208.667 301 215.5 300.5 220.5 299.5C225.5 298.5 231.333 296.667 238 294C244.667 291.333 251.333 287.667 258 283C264.667 278.333 270 273.833 274 269.5C278 265.167 281.667 260.5 285 255.5C288.333 250.5 291.333 244.667 294 238C296.667 231.333 298.5 225.5 299.5 220.5C300.5 215.5 301 208.667 301 200C301 191.333 300.5 184.5 299.5 179.5C298.5 174.5 296.667 168.667 294 162C291.333 155.333 287.667 148.667 283 142C278.333 135.333 273.667 129.833 269 125.5C264.333 121.167 259.667 117.5 255 114.5C250.333 111.5 244.667 108.667 238 106C231.333 103.333 225.5 101.5 220.5 100.5C215.5 99.5 208.667 99 200 99C191.333 99 184.5 99.5 179.5 100.5Z" fill="url(#LinearGradient_3)" fill-rule="nonzero" opacity="0.998798" stroke="none"/>
</g>
<g id="Layer-2" vectornator:layerName="Layer 2"/>
</svg>
